HIERARCHY
ROOT Hips
{
	OFFSET 0.000000 0.000000 0.000000
	CHANNELS 6 Xposition Yposition Zposition Xrotation Yrotation Zrotation
	JOINT LeftUpLeg_virtual
	{
		OFFSET 0.000000 0.000000 0.000000
		CHANNELS 3 Xrotation Yrotation Zrotation
		JOINT LeftUpLeg
		{
			OFFSET 11.394100 -6.187798 -0.413800
			CHANNELS 3 Xrotation Yrotation Zrotation
			JOINT LeftLeg
			{
				OFFSET 0.430247 -32.302673 3.732800
				CHANNELS 3 Xrotation Yrotation Zrotation
				JOINT LeftFoot
				{
					OFFSET -0.430247 -48.264931 -6.423300
					CHANNELS 3 Xrotation Yrotation Zrotation
					JOINT LeftToeBase
					{
						OFFSET 4.230900 -16.068199 23.438400
						CHANNELS 3 Xrotation Yrotation Zrotation
						JOINT LeftToe_End
						{
							OFFSET 4.510700 0.695400 19.974600
							CHANNELS 3 Xrotation Yrotation Zrotation
							End Site
							{
								OFFSET 0 0 0
							}
						}
					}
				}
			}
		}
	}
	JOINT RightUpLeg_virtual
	{
		OFFSET 0.000000 0.000000 0.000000
		CHANNELS 3 Xrotation Yrotation Zrotation
		JOINT RightUpLeg
		{
			OFFSET -11.333700 -6.187798 -0.413800
			CHANNELS 3 Xrotation Yrotation Zrotation
			JOINT RightLeg
			{
				OFFSET -0.430392 -32.302628 3.733000
				CHANNELS 3 Xrotation Yrotation Zrotation
				JOINT RightFoot
				{
					OFFSET 0.430392 -48.264973 -6.423500
					CHANNELS 3 Xrotation Yrotation Zrotation
					JOINT RightToeBase
					{
						OFFSET -4.230900 -16.068199 23.438400
						CHANNELS 3 Xrotation Yrotation Zrotation
						JOINT RightToe_End
						{
							OFFSET -4.510700 0.695400 19.974600
							CHANNELS 3 Xrotation Yrotation Zrotation
							End Site
							{
								OFFSET 0 0 0
							}
						}
					}
				}
			}
		}
	}
	JOINT Spine_virtual
	{
		OFFSET 0.000000 0.000000 0.000000
		CHANNELS 3 Xrotation Yrotation Zrotation
		JOINT Spine
		{
			OFFSET -0.002400 12.777504 0.315300
			CHANNELS 3 Xrotation Yrotation Zrotation
			JOINT Spine1
			{
				OFFSET -0.002067 5.816869 0.032633
				CHANNELS 3 Xrotation Yrotation Zrotation
				JOINT Spine1_split
				{
					OFFSET -0.002067 5.816869 0.032633
					CHANNELS 3 Xrotation Yrotation Zrotation
					JOINT Spine2
					{
						OFFSET -0.002067 5.816869 0.032633
						CHANNELS 3 Xrotation Yrotation Zrotation
						JOINT Neck_virtual
						{
							OFFSET 0.000000 0.000000 0.000000
							CHANNELS 3 Xrotation Yrotation Zrotation
							JOINT Neck
							{
								OFFSET -0.003700 21.199493 -0.826900
								CHANNELS 3 Xrotation Yrotation Zrotation
								JOINT Head
								{
									OFFSET 0.000000 20.442200 4.834800
									CHANNELS 3 Xrotation Yrotation Zrotation
									JOINT HeadTop_End
									{
										OFFSET 0.000000 34.668396 4.968400
										CHANNELS 3 Xrotation Yrotation Zrotation
										End Site
										{
											OFFSET 0 0 0
										}
									}
								}
							}
						}
						JOINT LeftShoulder_virtual
						{
							OFFSET 0.000000 0.000000 0.000000
							CHANNELS 3 Xrotation Yrotation Zrotation
							JOINT LeftShoulder
							{
								OFFSET 3.288150 8.794197 -1.372250
								CHANNELS 3 Xrotation Yrotation Zrotation
								JOINT LeftShoulder_split
								{
									OFFSET 3.288150 8.794197 -1.372250
									CHANNELS 3 Xrotation Yrotation Zrotation
									JOINT LeftArm
									{
										OFFSET 11.953299 -2.279007 -0.146200
										CHANNELS 3 Xrotation Yrotation Zrotation
										JOINT LeftForeArm
										{
											OFFSET 18.448900 0.000000 0.000000
											CHANNELS 3 Xrotation Yrotation Zrotation
											JOINT LeftHand
											{
												OFFSET 29.527798 0.000000 0.000000
												CHANNELS 3 Xrotation Yrotation Zrotation
												End Site
												{
													OFFSET 0 0 0
												}
											}
										}
									}
								}
							}
						}
						JOINT RightShoulder_virtual
						{
							OFFSET 0.000000 0.000000 0.000000
							CHANNELS 3 Xrotation Yrotation Zrotation
							JOINT RightShoulder
							{
								OFFSET -3.249400 8.794197 -1.372250
								CHANNELS 3 Xrotation Yrotation Zrotation
								JOINT RightShoulder_split
								{
									OFFSET -3.249400 8.794197 -1.372250
									CHANNELS 3 Xrotation Yrotation Zrotation
									JOINT RightArm
									{
										OFFSET -11.953299 -2.279007 -0.146200
										CHANNELS 3 Xrotation Yrotation Zrotation
										JOINT RightForeArm
										{
											OFFSET -18.448900 0.000000 0.000000
											CHANNELS 3 Xrotation Yrotation Zrotation
											JOINT RightHand
											{
												OFFSET -29.527802 0.000000 0.000000
												CHANNELS 3 Xrotation Yrotation Zrotation
												End Site
												{
													OFFSET 0 0 0
												}
											}
										}
									}
								}
							}
						}
					}
				}
			}
		}
	}
}
MOTION
Frames: 7
Frame Time: 0.03333333
2.352276 92.489403 10.874516 0.000000 0.000000 0.000000 5.905778 -12.657770 0.449202 -83.630913 -4.079587 6.737282 103.907620 12.404634 -4.904171 42.171408 -9.985416 12.511682 18.051495 -5.719157 -7.153931 0.000000 0.000000 0.000000 1.532507 -12.802104 -0.129898 1.627851 -6.206604 -3.711886 25.475378 5.183691 -3.341440 15.704027 2.208438 -8.482147 -28.772968 20.170189 17.091235 0.000000 0.000000 0.000000 6.751441 -10.111682 3.226777 0.707473 3.612426 0.355016 10.995578 2.895837 -1.215415 0.305517 10.004668 -2.584556 0.000000 0.000000 0.000000 10.299065 1.875204 -0.809066 8.365939 -1.992405 -7.519184 -13.142781 5.087387 -11.002268 0.000000 0.000000 0.000000 9.108171 2.916529 -0.942096 -0.080082 -12.505489 -7.503113 -1.260698 -5.238604 -6.899444 24.234560 2.918585 -47.456551 101.972088 -82.249206 86.547096 0.000000 0.000000 0.000000 12.164132 3.395297 -0.864162 0.190233 2.396507 4.672837 9.455628 8.323468 3.705196 -6.648011 -7.571258 59.331312 -90.073284 76.412345 83.631630 0.000000 0.000000 0.000000 
1.108892 91.279831 21.722597 0.000000 0.000000 0.000000 3.846325 -15.538248 1.438642 -85.442620 -3.732283 7.742930 92.232204 13.398040 -3.930493 39.856189 -9.246258 13.348062 18.027460 -5.323621 -5.636055 0.000000 0.000000 0.000000 0.935364 -17.582551 1.595304 1.250727 -5.510125 -4.556598 26.462917 5.530476 -2.129268 22.006217 3.449346 -5.512735 -31.770628 19.896491 19.246414 0.000000 0.000000 0.000000 6.004238 -10.194269 3.833581 1.026302 3.884746 -0.549576 10.714968 2.699691 -1.521154 1.285928 10.728995 -1.825862 0.000000 0.000000 0.000000 9.734254 1.886740 -0.968328 8.312560 -2.285065 -7.831425 -12.606193 5.660109 -10.393205 0.000000 0.000000 0.000000 8.852198 3.097500 -1.099553 0.367401 -10.760632 -6.096748 -2.782514 -4.118503 -7.513155 30.435374 8.803972 -47.733262 60.887605 -80.746278 45.577484 0.000000 0.000000 0.000000 11.676767 3.320840 -1.319917 0.126415 2.516548 3.140536 7.946512 4.292032 0.328112 -9.440228 -9.992777 55.830888 -120.370937 75.455081 113.861111 0.000000 0.000000 0.000000 
0.073959 88.701828 37.163952 0.000000 0.000000 0.000000 1.709902 -18.527380 4.784921 -84.021838 -5.368209 7.222555 74.963724 13.899249 -0.644667 36.833165 -7.842747 11.503825 15.137277 -4.661881 -2.498662 0.000000 0.000000 0.000000 -1.085691 -22.932999 5.287131 -0.707391 -3.381194 -5.715457 28.283561 6.700502 -0.067088 38.825831 6.709686 1.020235 -33.836928 18.358985 23.128554 0.000000 0.000000 0.000000 3.973491 -12.046927 6.485874 2.203416 4.143096 -2.347350 10.674641 2.610797 -2.748171 0.982044 8.890763 -0.150334 0.000000 0.000000 0.000000 9.470764 2.124788 -2.192542 8.984596 -2.771634 -7.994987 -11.605668 4.597587 -8.919821 0.000000 0.000000 0.000000 9.140274 3.447747 -2.419805 0.636821 -8.034728 -4.097641 -4.211256 -3.961297 -5.904712 35.586085 16.315223 -50.484742 34.900747 -72.301609 18.868894 0.000000 0.000000 0.000000 11.546623 3.485976 -2.929569 0.367687 3.018477 0.214060 6.750938 1.062813 -0.500309 -9.342252 -14.404647 49.671612 -142.634294 70.010013 136.840408 0.000000 0.000000 0.000000 
-0.544329 84.447235 55.520481 0.000000 0.000000 0.000000 -0.130875 -21.938959 9.681906 -80.316133 -8.645105 5.440463 56.774745 12.562951 4.217167 35.729642 -5.721632 7.677206 9.868233 -4.119321 1.792550 0.000000 0.000000 0.000000 -2.588131 -28.532673 10.481064 -4.377098 0.033855 -6.173366 29.696457 8.304735 2.168610 56.388870 11.667182 6.186551 -30.894332 17.058467 26.833295 0.000000 0.000000 0.000000 0.949291 -15.935216 10.729782 3.765972 4.190135 -4.519408 10.886726 2.520384 -4.465677 0.632510 5.320209 1.069322 0.000000 0.000000 0.000000 9.546116 2.414418 -4.100514 10.129395 -3.083499 -8.612813 -10.330432 2.554488 -7.349014 0.000000 0.000000 0.000000 9.791035 3.710946 -4.422693 0.667935 -4.835488 -2.311549 -4.629456 -5.231071 -4.306942 38.974699 23.281576 -54.793953 27.881872 -61.383873 10.339654 0.000000 0.000000 0.000000 11.793164 3.615986 -5.246076 0.814177 3.896544 -2.591525 6.704519 -0.396150 1.142868 -5.066301 -19.271614 43.408441 -152.579418 63.937169 148.353662 0.000000 0.000000 0.000000 
-0.501122 78.181892 75.495636 0.000000 0.000000 0.000000 -1.612453 -25.715731 15.228706 -76.463141 -11.946425 3.386311 41.878994 9.190096 9.013625 36.771348 -3.492102 3.283448 4.062302 -3.893795 5.830479 0.000000 0.000000 0.000000 -3.466520 -33.809938 15.719658 -11.662526 3.499101 -4.976093 33.867548 9.008529 4.181744 68.889739 14.341575 7.934823 -18.677098 18.042599 28.439111 0.000000 0.000000 0.000000 -1.530828 -21.163205 16.120551 5.407743 3.960478 -6.472671 11.397071 2.250552 -6.233827 0.007873 2.578301 1.558246 0.000000 0.000000 0.000000 9.749127 2.465263 -6.122185 11.361198 -2.837137 -10.253988 -9.103507 0.625511 -6.515610 0.000000 0.000000 0.000000 10.607721 3.674165 -6.521378 0.556457 -2.056796 -1.666661 -3.189657 -6.723155 -2.811499 40.411033 27.778943 -59.892822 27.282752 -51.015656 7.235306 0.000000 0.000000 0.000000 12.399671 3.494195 -7.526737 1.350351 5.280085 -3.958767 7.229213 -0.437909 3.358074 2.805234 -22.789577 39.576459 -156.572142 60.767824 154.718620 0.000000 0.000000 0.000000 
0.232988 69.945923 95.970055 0.000000 0.000000 0.000000 -2.299097 -30.780128 20.862459 -73.199670 -14.179217 1.427776 32.321476 4.486490 12.663983 39.192520 -1.784766 -0.568917 -1.070710 -3.644335 8.179859 0.000000 0.000000 0.000000 -4.102346 -39.196048 21.192293 -24.710021 5.301829 -2.390225 43.990199 8.958299 5.708114 76.206278 14.381228 8.652975 0.085738 20.161735 26.211380 0.000000 0.000000 0.000000 -3.027899 -27.513891 22.141110 6.922391 3.251782 -8.040885 12.212476 1.574520 -7.622255 -0.635024 0.528860 1.929029 0.000000 0.000000 0.000000 9.963031 2.038152 -7.701919 12.184869 -1.772094 -13.151977 -8.033442 0.110823 -7.108330 0.000000 0.000000 0.000000 11.528530 3.073927 -8.162099 0.429523 -0.073153 -2.733792 -1.080302 -8.586881 -2.803387 39.708131 28.199266 -63.761107 29.039437 -42.063532 5.568235 0.000000 0.000000 0.000000 13.345205 2.933045 -9.165059 1.901314 7.156728 -3.301093 7.046550 -0.387578 5.468772 12.369531 -23.583304 39.691636 -158.294374 62.210948 159.352166 0.000000 0.000000 0.000000 
1.525324 60.367378 116.346985 0.000000 0.000000 0.000000 -2.170200 -37.160156 26.999173 -71.265306 -14.858294 -0.159997 27.271110 -0.793943 14.786813 41.702017 -1.754587 -4.042538 -3.736396 -2.794413 7.789696 0.000000 0.000000 0.000000 -4.775479 -43.997388 27.077692 -44.057664 3.889064 -0.341697 61.053538 9.706938 6.212594 79.726797 15.006638 11.437778 15.592458 19.449081 20.272616 0.000000 0.000000 0.000000 -3.203891 -34.318340 28.559502 8.211212 2.114237 -9.218804 13.267506 0.297790 -8.357421 -0.669197 -0.627207 1.376097 0.000000 0.000000 0.000000 10.228311 0.881391 -8.535669 12.295188 0.120132 -17.209536 -7.171389 1.588779 -9.287865 0.000000 0.000000 0.000000 12.483473 1.737520 -8.990295 0.306161 0.706062 -5.782499 0.100664 -9.630822 -4.641761 35.937498 24.375521 -64.741396 31.208565 -33.474170 3.768746 0.000000 0.000000 0.000000 14.454574 1.762541 -9.887909 2.215981 8.815545 -0.815322 6.157328 -0.349394 6.473728 19.748251 -21.193959 42.198517 -160.763897 68.303251 164.512046 0.000000 0.000000 0.000000 
